<svg width="18" height="20" viewBox="0 0 18 20" fill="none" xmlns="http://www.w3.org/2000/svg">
<path fill-rule="evenodd" clip-rule="evenodd" d="M5.75997 0H13.8599C16.1099 0 17.9999 1.92661 17.9999 4.2202V14.9542V15.7799C17.9999 18.0735 16.1099 20.0001 13.8599 20.0001H5.75997C3.50998 20.0001 1.61999 18.0735 1.61999 15.7799V15.5047H0.899996C0.359998 15.5047 0 15.1377 0 14.5872C0 14.0368 0.359998 13.6698 0.899996 13.6698H4.13998C4.67998 13.6698 5.03997 14.0368 5.03997 14.5872C5.03997 15.1377 4.67998 15.5047 4.13998 15.5047H3.41998V15.7799C3.41998 17.0643 4.49998 18.1652 5.75997 18.1652H13.8599C15.1199 18.1652 16.1999 17.0643 16.1999 15.7799V14.9542V4.2202C16.1999 2.93579 15.1199 1.83487 13.8599 1.83487H5.75997C4.94998 1.83487 4.13998 2.29359 3.77998 3.02754C3.50998 3.48625 2.96999 3.66974 2.51999 3.39451C2.06999 3.11928 1.88999 2.56882 2.15999 2.1101C2.87999 0.825692 4.31998 0 5.75997 0ZM1.73571 6.36349H0.964281C0.385712 6.36349 0 5.99985 0 5.45439C0 4.90894 0.385712 4.5453 0.964281 4.5453H4.43569C5.01426 4.5453 5.39997 4.90894 5.39997 5.45439C5.39997 5.99985 5.01426 6.36349 4.43569 6.36349H3.66427V11.8181C3.66427 12.3635 3.27856 12.7272 2.69999 12.7272C2.12142 12.7272 1.73571 12.3635 1.73571 11.8181V6.36349Z" fill="white"/>
</svg>
