<svg width="18" height="20" viewBox="0 0 18 20" fill="none" xmlns="http://www.w3.org/2000/svg">
<path d="M14.04 0H6.3C4.14 0 2.34 1.91781 2.34 4.20091V4.56621H3.24H4.05H4.14C4.5 4.56621 4.86 4.93151 4.86 5.47945C4.86 5.93607 4.5 6.39269 4.05 6.39269H3.96H3.15H2.25H0.9C0.36 6.39269 0 6.75799 0 7.30594C0 7.85388 0.36 8.21918 0.9 8.21918H2.34V11.8721H3.24H4.05H4.14C4.59 11.8721 4.95 12.3288 4.95 12.7854C4.95 13.242 4.59 13.6986 4.14 13.6986H4.05H3.15H2.25H0.9C0.45 13.6986 0 14.1553 0 14.6119C0 15.0685 0.36 15.5251 0.9 15.5251H2.34V15.7991C2.34 18.1735 4.14 20 6.3 20H14.04C16.2 20 18 18.0822 18 15.7991V4.20091C18 1.91781 16.2 0 14.04 0Z" fill="#213E98"/>
</svg>
