<svg width="20" height="18" viewBox="0 0 20 18" fill="none" xmlns="http://www.w3.org/2000/svg">
<path fill-rule="evenodd" clip-rule="evenodd" d="M0 3.5641C0 1.60523 1.51278 0 3.48619 0H6.96685C8.09491 0 9.17461 0.39395 9.98493 1.34108L11.1489 2.46154H16.5138C18.4872 2.46154 20 4.06677 20 6.02564V14.4359C20 16.3948 18.4872 18 16.5138 18H3.48619C1.51278 18 0 16.3948 0 14.4359V3.5641ZM3.48619 2C2.67507 2 2 2.65118 2 3.5641V14.4359C2 15.3488 2.67507 16 3.48619 16H16.5138C17.3249 16 18 15.3488 18 14.4359V6.02564C18 5.11272 17.3249 4.46154 16.5138 4.46154H10.7459C10.4872 4.46154 10.2387 4.36135 10.0524 4.182L8.56065 2.7461C8.53397 2.72042 8.50874 2.69328 8.48508 2.66481C8.10614 2.20886 7.61099 2 6.96685 2H3.48619ZM8.31739 8.20658C7.6535 8.87046 7.6535 9.94683 8.31739 10.6107C8.93101 11.2243 9.89703 11.2708 10.564 10.7501C10.5959 10.7017 10.6325 10.6554 10.6738 10.6118C10.7293 10.5532 10.7902 10.5028 10.8551 10.4606C11.3819 9.79341 11.3374 8.82248 10.7215 8.20658C10.0576 7.54269 8.98127 7.54269 8.31739 8.20658ZM12.7547 11.2058C13.5376 9.79808 13.3313 7.98792 12.1357 6.79238C10.6908 5.34745 8.34811 5.34745 6.90319 6.79238C5.45826 8.2373 5.45826 10.58 6.90319 12.0249C8.1073 13.229 9.93488 13.4297 11.3468 12.6269L12.612 13.8255C13.0129 14.2053 13.6458 14.1882 14.0257 13.7873C14.4055 13.3864 14.3884 12.7534 13.9875 12.3736L12.7547 11.2058Z" fill="white"/>
</svg>
