<svg width="20" height="18" viewBox="0 0 20 18" fill="none" xmlns="http://www.w3.org/2000/svg">
<path fill-rule="evenodd" clip-rule="evenodd" d="M9.23858 1.1L10.8629 2.7V2.8H17.2589C18.7817 2.8 20 4 20 5.5V15.3C20 16.8 18.7817 18 17.2589 18H2.74112C1.21827 18 0 16.8 0 15.2V2.7C0 1.2 1.21827 0 2.74112 0H6.70051C7.61421 0 8.52792 0.4 9.23858 1.1ZM12.5002 12.0001L13.8002 13.3001C14.2002 13.7001 14.2002 14.3001 13.8002 14.8001C13.6002 15.0001 13.3002 15.1001 13.1002 15.1001C12.9002 15.1001 12.6002 15.0001 12.4002 14.8001L11.1002 13.5001C10.5002 13.8001 9.9002 14.0001 9.3002 14.0001C8.3002 14.0001 7.4002 13.6001 6.7002 12.9001C5.3002 11.4001 5.3002 9.1001 6.7002 7.7001C8.1002 6.3001 10.5002 6.3001 11.9002 7.7001C13.1002 8.8001 13.3002 10.6001 12.5002 12.0001ZM8.2002 9.1001C7.6002 9.7001 7.6002 10.8001 8.2002 11.4001C8.8002 12.0001 9.9002 12.0001 10.6002 11.4001C11.2002 10.8001 11.2002 9.7001 10.6002 9.1001C10.3002 8.8001 9.8002 8.6001 9.4002 8.6001C8.9002 8.6001 8.5002 8.8001 8.2002 9.1001Z" fill="#213E98"/>
</svg>
