<svg width="18" height="18" viewBox="0 0 18 18" fill="none" xmlns="http://www.w3.org/2000/svg">
<path d="M8.99996 0.666748C4.41663 0.666748 0.666626 4.41675 0.666626 9.00008C0.666626 9.50008 0.999959 9.83341 1.49996 9.83341H9.74996L7.08329 12.5001C6.74996 12.8334 6.74996 13.3334 7.08329 13.6667C7.24996 13.8334 7.41663 13.9167 7.66663 13.9167C7.91663 13.9167 8.08329 13.8334 8.24996 13.6667L12.25 9.58341C12.5833 9.25008 12.5833 8.75008 12.25 8.41675L8.33329 4.33341C7.99996 4.00008 7.41663 4.00008 7.16663 4.33341C6.83329 4.66675 6.83329 5.16675 7.16663 5.50008L9.74996 8.16675H2.41663C2.83329 4.91675 5.58329 2.33341 8.99996 2.33341C12.6666 2.33341 15.6666 5.33341 15.6666 9.00008C15.6666 12.6667 12.6666 15.6667 8.99996 15.6667C6.24996 15.6667 3.83329 14.0001 2.74996 11.4167C2.58329 11.0001 2.08329 10.7501 1.66663 10.9167C1.24996 11.0834 0.999959 11.5834 1.16663 12.0001C2.49996 15.2501 5.58329 17.3334 8.99996 17.3334C13.5833 17.3334 17.3333 13.5834 17.3333 9.00008C17.3333 4.41675 13.5833 0.666748 8.99996 0.666748Z" fill="white"/>
</svg>
