<svg width="18" height="18" viewBox="0 0 18 18" fill="none" xmlns="http://www.w3.org/2000/svg">
<path d="M17.3333 9.00008C17.3333 13.5752 13.5566 17.3334 8.95891 17.3334C4.60751 17.3334 1.07713 14.0654 0.666626 9.81707H9.77993L7.15267 12.5132C6.82426 12.84 6.82426 13.3301 7.15267 13.6569C7.31687 13.8203 7.48108 13.902 7.72738 13.902C7.97369 13.902 8.13789 13.8203 8.30209 13.6569L12.3251 9.57198C12.6535 9.24518 12.6535 8.75498 12.3251 8.42819L8.30209 4.34322C7.97369 4.01642 7.48108 4.01642 7.15267 4.34322C6.82426 4.67002 6.82426 5.16021 7.15267 5.48701L9.77993 8.18309H0.666626C1.07713 3.93472 4.68961 0.666748 8.95891 0.666748C13.5566 0.666748 17.3333 4.42492 17.3333 9.00008Z" fill="white"/>
</svg>
