<svg width="20" height="20" viewBox="0 0 20 20" fill="none" xmlns="http://www.w3.org/2000/svg">
<path fill-rule="evenodd" clip-rule="evenodd" d="M0 10C0 4.5 4.5 0 10 0C15.5 0 20 4.5 20 10C20 15.5 15.5 20 10 20C4.5 20 0 15.5 0 10ZM2 10C2 14.4 5.6 18 10 18C14.4 18 18 14.4 18 10C18 5.6 14.4 2 10 2C5.6 2 2 5.6 2 10ZM13.1001 11.7999C14.0001 12.1999 14.8001 12.6999 15.5001 13.3999C15.9001 13.7999 15.9001 14.3999 15.5001 14.7999C15.1001 15.1999 14.5001 15.1999 14.1001 14.7999C13.0001 13.6999 11.5001 13.0999 10.0001 13.0999C8.40009 13.0999 7.00009 13.6999 5.90009 14.7999C5.70009 14.9999 5.50009 15.0999 5.20009 15.0999C5.00009 15.0999 4.70009 14.9999 4.50009 14.7999C4.10009 14.3999 4.10009 13.7999 4.50009 13.3999C5.20009 12.6999 6.00009 12.1999 6.90009 11.7999C6.20009 10.9999 5.70009 9.99986 5.70009 8.79986C5.70009 6.39986 7.60009 4.49986 10.0001 4.49986C12.4001 4.49986 14.3001 6.39986 14.3001 8.79986C14.3001 9.99986 13.8001 10.9999 13.1001 11.7999ZM10.0001 6.49986C8.70009 6.49986 7.70009 7.49986 7.70009 8.79986C7.70009 10.0999 8.70009 11.0999 10.0001 11.0999C11.3001 11.0999 12.3001 10.0999 12.3001 8.79986C12.3001 7.49986 11.3001 6.49986 10.0001 6.49986Z" fill="white"/>
</svg>
